<svg version="1" xmlns="http://www.w3.org/2000/svg" width="346.667" height="346.667" viewBox="0 0 260.000000 260.000000"><path d="M39.2 34.1c-6.3 1.8-6.1-1.8-6.1 96.3 0 97.2-.2 93.3 5.8 95.4 4.7 1.6 180.9 1.1 183.8-.6 1.3-.7 2.6-2.5 3-4 1-3.6 1-178.9 0-182.5-1.6-5.7.7-5.5-95.2-5.5-53 0-89.3.4-91.3.9zm175.9 10.8l2.9 2.9v164.4l-2.9 2.9-2.9 2.9H47.8l-2.9-2.9-2.9-2.9V47.8l2.9-2.9 2.9-2.9h164.4l2.9 2.9z"/><path d="M58 79.4c0 .9 1.7 1.5 5.2 1.8 4 .4 5.7 1.1 7.5 3.2 2.3 2.7 2.3 3.1 2.3 26.4.1 54.8 0 61.3-1.5 64.2-1.6 3-6.9 6-10.9 6-1.6 0-2.6.6-2.6 1.5 0 1.3 2.7 1.5 18.5 1.5s18.5-.2 18.5-1.5-1.1-1.6-4.5-1.5c-1.7.1-6.7-3.4-8.2-5.7-1.6-2.5-1.8-6.4-1.9-44.1-.1-22.7.2-41 .6-40.5.4.4 8.9 20.4 19 44.3 10 23.9 18.9 44.7 19.7 46.2 2.5 5-.6 11.2 28.4-58.1l14.4-34.4.3 40.9c.1 22.5 0 42.4-.3 44.2-.7 4.1-5.4 7.2-10.7 7.2-2.7 0-3.8.4-3.8 1.5 0 1.3 3.7 1.5 27.5 1.5s27.5-.2 27.5-1.5c0-1.1-1.1-1.5-3.5-1.5-4.2 0-9-2.3-10.4-4.9-.7-1.2-1.1-18.2-1.1-45.5V87.1l2.3-2.6c1.6-1.9 3.5-2.7 7.5-3.2 3.5-.4 5.2-1 5.2-2 0-1.1-3.7-1.3-21.2-1.1l-21.1.3-5.9 14c-3.2 7.7-6.2 14.9-6.8 16-.5 1.1-4.2 10-8.3 19.8-4 9.8-7.7 17.8-8.2 17.8-.4 0-7.2-15.2-15.1-33.8l-14.2-33.8-22.1-.3C61.8 78 58 78.2 58 79.4z"/></svg>